<svg width="512" height="512" viewBox="0 0 512 512" fill="none" xmlns="http://www.w3.org/2000/svg">
  <defs>
    <linearGradient id="bg" x1="80" y1="45" x2="430" y2="470" gradientUnits="userSpaceOnUse">
      <stop stop-color="#0EA5E9"/>
      <stop offset="1" stop-color="#1E40AF"/>
    </linearGradient>
    <filter id="shadow" x="70" y="65" width="380" height="410" filterUnits="userSpaceOnUse" color-interpolation-filters="sRGB">
      <feDropShadow dx="8" dy="13" stdDeviation="12" flood-opacity="0.28"/>
    </filter>
  </defs>
  <rect x="36" y="36" width="440" height="440" rx="118" fill="url(#bg)"/>
  <circle cx="80" cy="70" r="150" fill="white" opacity="0.16"/>
  <circle cx="432" cy="430" r="155" fill="#7C3AED" opacity="0.18"/>
  <g filter="url(#shadow)">
    <rect x="128" y="92" width="240" height="318" rx="42" fill="#F8FAFC"/>
    <rect x="156" y="140" width="184" height="238" rx="24" fill="#F1F5F9"/>
    <rect x="197" y="70" width="102" height="56" rx="24" fill="#0F172A"/>
    <rect x="219" y="86" width="58" height="20" rx="10" fill="#94A3B8"/>
    <text x="175" y="253" font-family="Arial, sans-serif" font-size="64" font-weight="800" fill="#2563EB">{</text>
    <text x="292" y="253" font-family="Arial, sans-serif" font-size="64" font-weight="800" fill="#2563EB">}</text>
    <rect x="214" y="178" width="95" height="13" rx="7" fill="#64748B"/>
    <rect x="214" y="225" width="74" height="13" rx="7" fill="#2563EB"/>
    <rect x="214" y="272" width="105" height="13" rx="7" fill="#64748B"/>
    <rect x="214" y="319" width="82" height="13" rx="7" fill="#2563EB"/>
    <text x="256" y="397" text-anchor="middle" font-family="Arial, sans-serif" font-size="116" font-weight="900" fill="#0F172A">P</text>
  </g>
</svg>